{
	"asset":{
		"generator":"Khronos glTF Blender I/O v4.2.69",
		"version":"2.0"
	},
	"scene":0,
	"scenes":[
		{
			"name":"Scene",
			"nodes":[
				0
			]
		}
	],
	"nodes":[
		{
			"mesh":0,
			"name":"Mball.002",
			"scale":[
				0.8646227717399597,
				0.8646227717399597,
				0.8646227717399597
			],
			"translation":[
				0,
				0,
				-0.02453899383544922
			]
		}
	],
	"meshes":[
		{
			"name":"Mesh",
			"primitives":[
				{
					"attributes":{
						"POSITION":0,
						"NORMAL":1
					},
					"indices":2
				}
			]
		}
	],
	"accessors":[
		{
			"bufferView":0,
			"componentType":5126,
			"count":12680,
			"max":[
				0.8580775856971741,
				0.8580785989761353,
				2.893935441970825
			],
			"min":[
				-0.8580796122550964,
				-0.8580785989761353,
				-2.8931612968444824
			],
			"type":"VEC3"
		},
		{
			"bufferView":1,
			"componentType":5126,
			"count":12680,
			"type":"VEC3"
		},
		{
			"bufferView":2,
			"componentType":5123,
			"count":76068,
			"type":"SCALAR"
		}
	],
	"bufferViews":[
		{
			"buffer":0,
			"byteLength":152160,
			"byteOffset":0,
			"target":34962
		},
		{
			"buffer":0,
			"byteLength":152160,
			"byteOffset":152160,
			"target":34962
		},
		{
			"buffer":0,
			"byteLength":152136,
			"byteOffset":304320,
			"target":34963
		}
	],
	"buffers":[
		{
			"byteLength":456456,
			"uri":"atom.bin"
		}
	]
}
