{
	"asset":{
		"generator":"Khronos glTF Blender I/O v4.4.55",
		"version":"2.0"
	},
	"scene":0,
	"scenes":[
		{
			"name":"Scene",
			"nodes":[
				0
			]
		}
	],
	"nodes":[
		{
			"mesh":0,
			"name":"Humano_03Elegant_01_100k_001"
		}
	],
	"meshes":[
		{
			"name":"Humano_03Elegant_01_100k_001",
			"primitives":[
				{
					"attributes":{
						"POSITION":0,
						"NORMAL":1,
						"TEXCOORD_0":2
					},
					"indices":3
				}
			]
		}
	],
	"accessors":[
		{
			"bufferView":0,
			"componentType":5126,
			"count":52385,
			"max":[
				0.32451876997947693,
				1.7799761295318604,
				0.31821689009666443
			],
			"min":[
				-0.2437634915113449,
				-0.0013306437758728862,
				-0.3211264908313751
			],
			"type":"VEC3"
		},
		{
			"bufferView":1,
			"componentType":5126,
			"count":52385,
			"type":"VEC3"
		},
		{
			"bufferView":2,
			"componentType":5126,
			"count":52385,
			"type":"VEC2"
		},
		{
			"bufferView":3,
			"componentType":5123,
			"count":299895,
			"type":"SCALAR"
		}
	],
	"bufferViews":[
		{
			"buffer":0,
			"byteLength":628620,
			"byteOffset":0,
			"target":34962
		},
		{
			"buffer":0,
			"byteLength":628620,
			"byteOffset":628620,
			"target":34962
		},
		{
			"buffer":0,
			"byteLength":419080,
			"byteOffset":1257240,
			"target":34962
		},
		{
			"buffer":0,
			"byteLength":599790,
			"byteOffset":1676320,
			"target":34963
		}
	],
	"buffers":[
		{
			"byteLength":2276112,
			"uri":"business_woman_sm.bin"
		}
	]
}
