{
	"asset":{
		"generator":"Khronos glTF Blender I/O v4.2.69",
		"version":"2.0"
	},
	"scene":0,
	"scenes":[
		{
			"name":"Scene",
			"nodes":[
				0
			]
		}
	],
	"nodes":[
		{
			"mesh":0,
			"name":"BMan0305-HD2-O02P01-S",
			"rotation":[
				0.7071068286895752,
				0,
				0,
				0.7071068286895752
			],
			"scale":[
				1.041361927986145,
				1.041361927986145,
				1.041361927986145
			],
			"translation":[
				0.005338490009307861,
				0,
				0
			]
		}
	],
	"meshes":[
		{
			"name":"BMan0305-HD2-O02P01-S.001",
			"primitives":[
				{
					"attributes":{
						"POSITION":0,
						"NORMAL":1,
						"TEXCOORD_0":2
					},
					"indices":3
				}
			]
		}
	],
	"accessors":[
		{
			"bufferView":0,
			"componentType":5126,
			"count":21086,
			"max":[
				0.22543400526046753,
				0.2847050130367279,
				0.002845000009983778
			],
			"min":[
				-0.22543400526046753,
				-0.2847050130367279,
				-1.6938079595565796
			],
			"type":"VEC3"
		},
		{
			"bufferView":1,
			"componentType":5126,
			"count":21086,
			"type":"VEC3"
		},
		{
			"bufferView":2,
			"componentType":5126,
			"count":21086,
			"type":"VEC2"
		},
		{
			"bufferView":3,
			"componentType":5123,
			"count":119958,
			"type":"SCALAR"
		}
	],
	"bufferViews":[
		{
			"buffer":0,
			"byteLength":253032,
			"byteOffset":0,
			"target":34962
		},
		{
			"buffer":0,
			"byteLength":253032,
			"byteOffset":253032,
			"target":34962
		},
		{
			"buffer":0,
			"byteLength":168688,
			"byteOffset":506064,
			"target":34962
		},
		{
			"buffer":0,
			"byteLength":239916,
			"byteOffset":674752,
			"target":34963
		}
	],
	"buffers":[
		{
			"byteLength":914668,
			"uri":"business_man.bin"
		}
	]
}
