{
	"asset":{
		"generator":"Khronos glTF Blender I/O v4.4.55",
		"version":"2.0"
	},
	"scene":0,
	"scenes":[
		{
			"name":"Scene",
			"nodes":[
				0
			]
		}
	],
	"nodes":[
		{
			"mesh":0,
			"name":"11-chioma",
			"scale":[
				1.3591445684432983,
				1.3591445684432983,
				1.3591445684432983
			],
			"translation":[
				26.073226928710938,
				0,
				-12.458816528320312
			]
		}
	],
	"meshes":[
		{
			"name":"Plane.127",
			"primitives":[
				{
					"attributes":{
						"POSITION":0,
						"NORMAL":1
					},
					"indices":2
				}
			]
		}
	],
	"accessors":[
		{
			"bufferView":0,
			"componentType":5126,
			"count":165246,
			"max":[
				8.989606857299805,
				28.9852294921875,
				17.33106231689453
			],
			"min":[
				-41.858760833740234,
				1.114559531211853,
				-18.010696411132812
			],
			"type":"VEC3"
		},
		{
			"bufferView":1,
			"componentType":5126,
			"count":165246,
			"type":"VEC3"
		},
		{
			"bufferView":2,
			"componentType":5125,
			"count":166398,
			"type":"SCALAR"
		}
	],
	"bufferViews":[
		{
			"buffer":0,
			"byteLength":1982952,
			"byteOffset":0,
			"target":34962
		},
		{
			"buffer":0,
			"byteLength":1982952,
			"byteOffset":1982952,
			"target":34962
		},
		{
			"buffer":0,
			"byteLength":665592,
			"byteOffset":3965904,
			"target":34963
		}
	],
	"buffers":[
		{
			"byteLength":4631496,
			"uri":"chioma_n2.bin"
		}
	]
}
