{
	"asset":{
		"generator":"Khronos glTF Blender I/O v4.4.55",
		"version":"2.0"
	},
	"scene":0,
	"scenes":[
		{
			"name":"Scene",
			"nodes":[
				0
			]
		}
	],
	"nodes":[
		{
			"mesh":0,
			"name":"Humano_11WinterAutumn_13_100K",
			"rotation":[
				0.70710688829422,
				0,
				0,
				0.7071066498756409
			]
		}
	],
	"meshes":[
		{
			"name":"Humano_11WinterAutumn_13_100K",
			"primitives":[
				{
					"attributes":{
						"POSITION":0,
						"NORMAL":1,
						"TEXCOORD_0":2
					},
					"indices":3
				}
			]
		}
	],
	"accessors":[
		{
			"bufferView":0,
			"componentType":5126,
			"count":52039,
			"max":[
				0.2822459936141968,
				0.20930300652980804,
				-3.400000059627928e-05
			],
			"min":[
				-0.3826940059661865,
				-0.2723950147628784,
				-1.8015650510787964
			],
			"type":"VEC3"
		},
		{
			"bufferView":1,
			"componentType":5126,
			"count":52039,
			"type":"VEC3"
		},
		{
			"bufferView":2,
			"componentType":5126,
			"count":52039,
			"type":"VEC2"
		},
		{
			"bufferView":3,
			"componentType":5123,
			"count":299862,
			"type":"SCALAR"
		}
	],
	"bufferViews":[
		{
			"buffer":0,
			"byteLength":624468,
			"byteOffset":0,
			"target":34962
		},
		{
			"buffer":0,
			"byteLength":624468,
			"byteOffset":624468,
			"target":34962
		},
		{
			"buffer":0,
			"byteLength":416312,
			"byteOffset":1248936,
			"target":34962
		},
		{
			"buffer":0,
			"byteLength":599724,
			"byteOffset":1665248,
			"target":34963
		}
	],
	"buffers":[
		{
			"byteLength":2264972,
			"uri":"bag_woman_new.bin"
		}
	]
}
