{
	"asset":{
		"generator":"Khronos glTF Blender I/O v4.2.69",
		"version":"2.0"
	},
	"scene":0,
	"scenes":[
		{
			"name":"Scene",
			"nodes":[
				0
			]
		}
	],
	"nodes":[
		{
			"mesh":0,
			"name":"Humano_Posed_0572899-Man_04_LOD0",
			"rotation":[
				0.7071068286895752,
				0,
				0,
				0.7071068286895752
			]
		}
	],
	"meshes":[
		{
			"name":"Humano_Posed_0572899-Man_04_LOD0.001",
			"primitives":[
				{
					"attributes":{
						"POSITION":0,
						"NORMAL":1,
						"TEXCOORD_0":2
					},
					"indices":3
				}
			]
		}
	],
	"accessors":[
		{
			"bufferView":0,
			"componentType":5126,
			"count":54027,
			"max":[
				0.3285309970378876,
				0.39013200998306274,
				-0.003470999887213111
			],
			"min":[
				-0.3508889973163605,
				-0.3283660113811493,
				-1.8691200017929077
			],
			"type":"VEC3"
		},
		{
			"bufferView":1,
			"componentType":5126,
			"count":54027,
			"type":"VEC3"
		},
		{
			"bufferView":2,
			"componentType":5126,
			"count":54027,
			"type":"VEC2"
		},
		{
			"bufferView":3,
			"componentType":5123,
			"count":307929,
			"type":"SCALAR"
		}
	],
	"bufferViews":[
		{
			"buffer":0,
			"byteLength":648324,
			"byteOffset":0,
			"target":34962
		},
		{
			"buffer":0,
			"byteLength":648324,
			"byteOffset":648324,
			"target":34962
		},
		{
			"buffer":0,
			"byteLength":432216,
			"byteOffset":1296648,
			"target":34962
		},
		{
			"buffer":0,
			"byteLength":615858,
			"byteOffset":1728864,
			"target":34963
		}
	],
	"buffers":[
		{
			"byteLength":2344724,
			"uri":"borsa_man.bin"
		}
	]
}
