{
	"asset":{
		"generator":"Khronos glTF Blender I/O v4.4.55",
		"version":"2.0"
	},
	"extensionsUsed":[
		"KHR_materials_specular",
		"KHR_materials_ior"
	],
	"scene":0,
	"scenes":[
		{
			"name":"Scene",
			"nodes":[
				0
			]
		}
	],
	"nodes":[
		{
			"mesh":0,
			"name":"tronco",
			"scale":[
				1.2000483274459839,
				1.2000483274459839,
				1.2000483274459839
			],
			"translation":[
				-5.792590618133545,
				-0.6962818503379822,
				1.947967529296875
			]
		}
	],
	"materials":[
		{
			"doubleSided":true,
			"extensions":{
				"KHR_materials_specular":{
					"specularFactor":0.5
				},
				"KHR_materials_ior":{
					"ior":1.4500000476837158
				}
			},
			"name":"Bark",
			"pbrMetallicRoughness":{
				"baseColorFactor":[
					0.13412800431251526,
					0.07030200213193893,
					0.02645299956202507,
					1
				],
				"metallicFactor":0,
				"roughnessFactor":0.8999999761581421
			}
		}
	],
	"meshes":[
		{
			"name":"Plane.002",
			"primitives":[
				{
					"attributes":{
						"POSITION":0
					},
					"indices":1,
					"material":0
				}
			]
		}
	],
	"accessors":[
		{
			"bufferView":0,
			"componentType":5126,
			"count":41325,
			"max":[
				35.82078170776367,
				33.891685485839844,
				6.605627536773682
			],
			"min":[
				-19.16447639465332,
				-1.0863879919052124,
				-29.85825538635254
			],
			"type":"VEC3"
		},
		{
			"bufferView":1,
			"componentType":5123,
			"count":173010,
			"type":"SCALAR"
		}
	],
	"bufferViews":[
		{
			"buffer":0,
			"byteLength":495900,
			"byteOffset":0,
			"target":34962
		},
		{
			"buffer":0,
			"byteLength":346020,
			"byteOffset":495900,
			"target":34963
		}
	],
	"buffers":[
		{
			"byteLength":841920,
			"uri":"tronchi_n1.bin"
		}
	]
}
