{
	"asset":{
		"generator":"Khronos glTF Blender I/O v4.4.55",
		"version":"2.0"
	},
	"scene":0,
	"scenes":[
		{
			"name":"Scene",
			"nodes":[
				0
			]
		}
	],
	"nodes":[
		{
			"mesh":0,
			"name":"Object_2"
		}
	],
	"meshes":[
		{
			"name":"Object_0",
			"primitives":[
				{
					"attributes":{
						"POSITION":0,
						"NORMAL":1,
						"TEXCOORD_0":2
					},
					"indices":3
				}
			]
		}
	],
	"accessors":[
		{
			"bufferView":0,
			"componentType":5126,
			"count":7752,
			"max":[
				1.0291889905929565,
				1.0229219198226929,
				1.018946886062622
			],
			"min":[
				-0.9933450222015381,
				-1.0307378768920898,
				-1.0253188610076904
			],
			"type":"VEC3"
		},
		{
			"bufferView":1,
			"componentType":5126,
			"count":7752,
			"type":"VEC3"
		},
		{
			"bufferView":2,
			"componentType":5126,
			"count":7752,
			"type":"VEC2"
		},
		{
			"bufferView":3,
			"componentType":5123,
			"count":19338,
			"type":"SCALAR"
		}
	],
	"bufferViews":[
		{
			"buffer":0,
			"byteLength":93024,
			"byteOffset":0,
			"target":34962
		},
		{
			"buffer":0,
			"byteLength":93024,
			"byteOffset":93024,
			"target":34962
		},
		{
			"buffer":0,
			"byteLength":62016,
			"byteOffset":186048,
			"target":34962
		},
		{
			"buffer":0,
			"byteLength":38676,
			"byteOffset":248064,
			"target":34963
		}
	],
	"buffers":[
		{
			"byteLength":286740,
			"uri":"world.bin"
		}
	]
}
